name C:/MyDriveSym/Projects/mobilecap/Data\Session20210910_0001\mocap\ForceDataProcessed\DJ5_forces.mot
datacolumns 28
datarows 8
range 1.23950000 1.24300000
endheader 
time	R_ground_force_vx	R_ground_force_vy	R_ground_force_vz	R_ground_force_px	R_ground_force_py	R_ground_force_pz	R_ground_torque_x	R_ground_torque_y	R_ground_torque_z	L_ground_force_vx	L_ground_force_vy	L_ground_force_vz	L_ground_force_px	L_ground_force_py	L_ground_force_pz	L_ground_torque_x	L_ground_torque_y	L_ground_torque_z	3_ground_force_vx	3_ground_force_vy	3_ground_force_vz	3_ground_force_px	3_ground_force_py	3_ground_force_pz	3_ground_torque_x	3_ground_torque_y	3_ground_torque_z	
          1.23950000	       -175.84821200	       1524.24368800	        -36.17161200	         -0.20149700	          0.00600000	         -0.46995300	          0.00000000	        -10.16733200	          0.00000000	       -244.55746600	       1250.50271000	        -36.43460100	         -0.21623200	          0.00600000	         -0.78627100	          0.00000000	         21.89544900	          0.00000000	          0.00000000	          0.00000000	          0.00000000	          0.00000000	          0.00000000	          0.00000000	          0.00000000	          0.00000000	          0.00000000	
          1.24000000	       -174.83392900	       1527.07469200	        -32.16937200	         -0.20194400	          0.00600000	         -0.47021500	          0.00000000	        -10.47142400	          0.00000000	       -260.35658900	       1225.54584200	        -32.88882000	         -0.21413800	          0.00600000	         -0.78649200	          0.00000000	         22.06413400	          0.00000000	          0.00000000	          0.00000000	          0.00000000	          0.00000000	          0.00000000	          0.00000000	          0.00000000	          0.00000000	          0.00000000	
          1.24050000	       -174.07066300	       1528.01388900	        -28.07141000	         -0.20230700	          0.00600000	         -0.47047200	          0.00000000	        -10.76411400	          0.00000000	       -275.83149300	       1201.27859800	        -29.06994100	         -0.21199900	          0.00600000	         -0.78674000	          0.00000000	         22.20714100	          0.00000000	          0.00000000	          0.00000000	          0.00000000	          0.00000000	          0.00000000	          0.00000000	          0.00000000	          0.00000000	          0.00000000	
          1.24100000	       -173.57541100	       1527.08253600	        -23.89861900	         -0.20259000	          0.00600000	         -0.47072300	          0.00000000	        -11.04486100	          0.00000000	       -290.90049900	       1177.73715800	        -25.01543200	         -0.20982500	          0.00600000	         -0.78701400	          0.00000000	         22.32300300	          0.00000000	          0.00000000	          0.00000000	          0.00000000	          0.00000000	          0.00000000	          0.00000000	          0.00000000	          0.00000000	          0.00000000	
          1.24150000	       -173.36153100	       1524.31292400	        -19.67289800	         -0.20279200	          0.00600000	         -0.47096800	          0.00000000	        -11.31313500	          0.00000000	       -305.48651500	       1154.94997000	        -20.76160400	         -0.20762500	          0.00600000	         -0.78731300	          0.00000000	         22.41031900	          0.00000000	          0.00000000	          0.00000000	          0.00000000	          0.00000000	          0.00000000	          0.00000000	          0.00000000	          0.00000000	          0.00000000	
          1.24200000	       -173.43864500	       1519.74775500	        -15.41636800	         -0.20291500	          0.00600000	         -0.47120600	          0.00000000	        -11.56841600	          0.00000000	       -319.51765600	       1132.93864800	        -16.34326100	         -0.20540900	          0.00600000	         -0.78763500	          0.00000000	         22.46785300	          0.00000000	          0.00000000	          0.00000000	          0.00000000	          0.00000000	          0.00000000	          0.00000000	          0.00000000	          0.00000000	          0.00000000	
          1.24250000	       -173.81259000	       1513.43956700	        -11.15085800	         -0.20295900	          0.00600000	         -0.47143800	          0.00000000	        -11.81024200	          0.00000000	       -332.92757300	       1111.71891500	        -11.79366200	         -0.20318500	          0.00600000	         -0.78797900	          0.00000000	         22.49466200	          0.00000000	          0.00000000	          0.00000000	          0.00000000	          0.00000000	          0.00000000	          0.00000000	          0.00000000	          0.00000000	          0.00000000	
          1.24300000	       -174.48543500	       1505.45008400	         -6.89776300	         -0.20292600	          0.00600000	         -0.47166200	          0.00000000	        -12.03830000	          0.00000000	       -345.65560700	       1091.30153400	         -7.14469900	         -0.20096600	          0.00600000	         -0.78834200	          0.00000000	         22.49019200	          0.00000000	          0.00000000	          0.00000000	          0.00000000	          0.00000000	          0.00000000	          0.00000000	          0.00000000	          0.00000000	          0.00000000	
